<svg xmlns:mydata="http://www.w3.org/2000/svg" version="1.1" xmlns="http://www.w3.org/2000/svg"
    xmlns:xlink="http://www.w3.org/1999/xlink" viewBox="0 0 550 470"
    style="background-color: rgb(24, 24, 27);">
    <defs style="animation-play-state: running;">
        <filter id="electric-electric" x="-50%" y="-50%" width="200%" height="200%"
            style="animation-play-state: running;">
            <feTurbulence baseFrequency="0.08" type="fractalNoise" numOctaves="1" seed="1"
                result="noise" style="animation-play-state: running;"></feTurbulence>
            <feColorMatrix in="noise" result="noise" type="hueRotate" values="90"
                style="animation-play-state: running;">
                <animate attributeType="XML" attributeName="values" values="0;180;360" dur="3s"
                    repeatCount="indefinite" style="animation-play-state: running;"></animate>
            </feColorMatrix>
            <feDisplacementMap in="SourceGraphic" xChannelSelector="R" in2="noise" scale="13"
                result="lines" style="animation-play-state: running;"></feDisplacementMap>
            <feGaussianBlur in="lines" result="output" stdDeviation="5"
                style="animation-play-state: running;"></feGaussianBlur>
            <feBlend in="lines" in2="output" result="output" mode="screen"
                style="animation-play-state: running;"></feBlend>
        </filter>
    </defs>
    <g fill-rule="none" font-family="none" font-weight="none" font-size="none" text-anchor="none"
        style="mix-blend-mode: normal; animation-play-state: running;"
        filter="url(#electric-electric)" fill="none" stroke="#0EA5E9" stroke-width="2.5">
        <g data-paper-data="{'isGlobalGroup':true,'bounds':{'x':65.00000000000003,'y':166.7758832227011,'width':420,'height':136.44823355459778}}"
            style="animation-play-state: running;">
            <g data-paper-data="{'isPrimaryText':true}" fill-rule="nonzero"
                style="animation-play-state: running;">
                <path
                    d="M133.18081,274.83303c10.19472,0 20.38943,-3.88029 28.15068,-11.64154c0.03183,-0.03249 0.03183,-0.08487 0,-0.11736l-11.2364,-11.23706c-0.03116,-0.03116 -0.08554,-0.03116 -0.11803,0c-9.26111,9.26178 -24.33139,9.26178 -33.59251,0c-4.487,-4.48634 -6.95761,-10.45133 -6.95761,-16.79625c0,-6.34493 2.47127,-12.30991 6.95761,-16.79691c9.26111,-9.26178 24.33139,-9.26178 33.59251,0c0.03249,0.03116 0.08686,0.03116 0.11803,0l11.2364,-11.23706c0.03183,-0.03249 0.03183,-0.08487 0,-0.11736c-15.52249,-15.52249 -40.77887,-15.52249 -56.30136,0c-7.51922,7.51922 -11.6601,17.51635 -11.6601,28.15068c0,10.63433 4.14088,20.63146 11.6601,28.15068c7.76125,7.76191 17.95596,11.6422 28.15068,11.6422z"
                    data-paper-data="{'glyphName':'C','glyphIndex':0,'firstGlyphOfWord':true,'word':1}"
                    style="animation-play-state: running;"></path>
                <path
                    d="M170.3691,274.85358h15.88718c0.04575,0 0.08289,-0.03713 0.08289,-0.08289v-17.32273h20.82308c0.50858,0 1.01848,-0.01392 1.5191,-0.03846l10.76297,17.40495c0.01459,0.02453 0.04177,0.03912 0.07029,0.03912h18.67208c0.02984,0 0.05769,-0.01658 0.07228,-0.04244c0.01392,-0.02652 0.01392,-0.05835 -0.00199,-0.08355l-13.89532,-22.4728c8.70877,-5.77933 13.90725,-15.45884 13.90725,-25.9148c0,-17.15298 -13.95499,-31.10798 -31.10798,-31.10798h-36.79315c-0.04575,0 -0.08289,0.03713 -0.08289,0.08289v79.4558c0.00133,0.04575 0.03846,0.08289 0.08421,0.08289zM215.84053,238.6393c-2.53426,1.80289 -5.53532,2.75572 -8.67827,2.75572h-20.82308v-30.11006h20.82308c8.30165,0 15.05503,6.75404 15.05503,15.05503c0,4.88219 -2.38308,9.47993 -6.37675,12.29931z"
                    data-paper-data="{'glyphName':'R','glyphIndex':1,'word':1}"
                    style="animation-play-state: running;"></path>
                <path
                    d="M271.03717,258.875c13.16503,0 23.8374,-10.67237 23.8374,-23.8374c0,-13.16503 -10.67237,-23.8374 -23.8374,-23.8374c-13.16503,0 -23.8374,10.67237 -23.8374,23.8374c0,13.16503 10.67237,23.8374 23.8374,23.8374zM378.58132,195.23012h-15.88718c-0.04575,0 -0.08289,0.03713 -0.08289,0.08289v53.48397l-33.09984,-53.52773c-0.01525,-0.02453 -0.04177,-0.03979 -0.07028,-0.03979h-18.67871c-0.04575,0 -0.08289,0.03713 -0.08289,0.08289v39.72459c0,21.86211 -17.7829,39.64833 -39.6417,39.64833c-0.04575,0 -0.08289,0.03713 -0.08289,0.08289c0,0.04575 0.03713,0.08289 0.08289,0.08289h55.60514c0.04575,0 0.08289,-0.03713 0.08289,-0.08289v-53.48331l33.10647,53.52707c0.01525,0.02453 0.04177,0.03979 0.07028,0.03979h18.67871c0.04575,0 0.08289,-0.03713 0.08289,-0.08289v-79.4558c0,-0.04575 -0.03713,-0.08289 -0.08289,-0.08289z"
                    data-paper-data="{'glyphName':'','glyphIndex':2,'word':1}"
                    style="animation-play-state: running;"></path>
                <path
                    d="M456.61951,195.27445c-0.01459,-0.02652 -0.04244,-0.04244 -0.07228,-0.04244h-18.67142c-0.02851,0 -0.0557,0.01459 -0.07029,0.03912l-15.16112,24.5144l-15.15913,-24.5144c-0.01459,-0.02453 -0.04177,-0.03912 -0.07029,-0.03912h-18.67871c-0.02984,0 -0.05769,0.01658 -0.07228,0.04244c-0.01392,0.02652 -0.01392,0.05835 0.00199,0.08355l24.54357,39.68414l-24.54357,39.68414c-0.01525,0.02586 -0.01591,0.05769 -0.00199,0.08355c0.01459,0.02652 0.04244,0.04244 0.07228,0.04244h18.67871c0.02851,0 0.0557,-0.01459 0.07029,-0.03912l15.15913,-24.5144l15.16112,24.5144c0.01459,0.02453 0.04177,0.03912 0.07029,0.03912h18.67142c0.02984,0 0.05769,-0.01658 0.07228,-0.04244c0.01392,-0.02652 0.01392,-0.05835 -0.00199,-0.08355l-24.5396,-39.68414l24.5396,-39.68414c0.01591,-0.0252 0.01658,-0.05702 0.00199,-0.08355z"
                    data-paper-data="{'glyphName':'X','glyphIndex':3,'lastGlyphOfWord':true,'word':1}"
                    style="animation-play-state: running;"></path>
            </g>
            <g data-paper-data="{'isContainerElementsWrapper':true}" fill-rule="evenodd"
                style="animation-play-state: running;">
                <path
                    d="M65,294.02224c0,2.54066 0.89832,4.70947 2.69497,6.50643c1.7969,1.79696 3.9658,2.69544 6.50672,2.69544h401.59644c2.54066,0 4.70947,-0.89848 6.50643,-2.69544c1.79696,-1.79696 2.69544,-3.96577 2.69544,-6.50643v-118.04448c0,-2.54066 -0.89848,-4.70947 -2.69544,-6.50643c-1.79696,-1.79696 -3.96577,-2.69544 -6.50643,-2.69544h-401.59644c-2.54104,0 -4.70994,0.89848 -6.50672,2.69544c-1.79665,1.79696 -2.69497,3.96577 -2.69497,6.50643zM74.20169,295.20197c-0.32579,0 -0.60389,-0.11514 -0.8343,-0.34542c-0.23041,-0.23028 -0.34561,-0.50838 -0.34561,-0.8343v-118.04448c0,-0.32592 0.11524,-0.60402 0.34571,-0.8343c0.23035,-0.23028 0.50842,-0.34542 0.83421,-0.34542h401.59644c0.32592,0 0.60402,0.11514 0.8343,0.34542c0.23028,0.23028 0.34542,0.50838 0.34542,0.8343v118.04448c0,0.32592 -0.11514,0.60402 -0.34542,0.8343c-0.23028,0.23028 -0.50838,0.34542 -0.8343,0.34542z"
                    data-paper-data="{'isBaseLogoContainer':true}"
                    style="animation-play-state: running;"></path>
            </g>
        </g>
    </g>
    <g fill-rule="none" font-family="none" font-weight="none" font-size="none" text-anchor="none"
        style="mix-blend-mode: normal; animation-play-state: running;"
        filter="url(#electric-electric)" fill="none" stroke="#D946EF" opacity="0.5">
        <g data-paper-data="{'isGlobalGroup':true,'bounds':{'x':65.00000000000003,'y':166.7758832227011,'width':420,'height':136.44823355459778}}"
            style="animation-play-state: running;">
            <g data-paper-data="{'isPrimaryText':true}" fill-rule="nonzero"
                style="animation-play-state: running;">
                <path
                    d="M133.18081,274.83303c10.19472,0 20.38943,-3.88029 28.15068,-11.64154c0.03183,-0.03249 0.03183,-0.08487 0,-0.11736l-11.2364,-11.23706c-0.03116,-0.03116 -0.08554,-0.03116 -0.11803,0c-9.26111,9.26178 -24.33139,9.26178 -33.59251,0c-4.487,-4.48634 -6.95761,-10.45133 -6.95761,-16.79625c0,-6.34493 2.47127,-12.30991 6.95761,-16.79691c9.26111,-9.26178 24.33139,-9.26178 33.59251,0c0.03249,0.03116 0.08686,0.03116 0.11803,0l11.2364,-11.23706c0.03183,-0.03249 0.03183,-0.08487 0,-0.11736c-15.52249,-15.52249 -40.77887,-15.52249 -56.30136,0c-7.51922,7.51922 -11.6601,17.51635 -11.6601,28.15068c0,10.63433 4.14088,20.63146 11.6601,28.15068c7.76125,7.76191 17.95596,11.6422 28.15068,11.6422z"
                    data-paper-data="{'glyphName':'C','glyphIndex':0,'firstGlyphOfWord':true,'word':1}"
                    style="animation-play-state: running;"></path>
                <path
                    d="M170.3691,274.85358h15.88718c0.04575,0 0.08289,-0.03713 0.08289,-0.08289v-17.32273h20.82308c0.50858,0 1.01848,-0.01392 1.5191,-0.03846l10.76297,17.40495c0.01459,0.02453 0.04177,0.03912 0.07029,0.03912h18.67208c0.02984,0 0.05769,-0.01658 0.07228,-0.04244c0.01392,-0.02652 0.01392,-0.05835 -0.00199,-0.08355l-13.89532,-22.4728c8.70877,-5.77933 13.90725,-15.45884 13.90725,-25.9148c0,-17.15298 -13.95499,-31.10798 -31.10798,-31.10798h-36.79315c-0.04575,0 -0.08289,0.03713 -0.08289,0.08289v79.4558c0.00133,0.04575 0.03846,0.08289 0.08421,0.08289zM215.84053,238.6393c-2.53426,1.80289 -5.53532,2.75572 -8.67827,2.75572h-20.82308v-30.11006h20.82308c8.30165,0 15.05503,6.75404 15.05503,15.05503c0,4.88219 -2.38308,9.47993 -6.37675,12.29931z"
                    data-paper-data="{'glyphName':'R','glyphIndex':1,'word':1}"
                    style="animation-play-state: running;"></path>
                <path
                    d="M271.03717,258.875c13.16503,0 23.8374,-10.67237 23.8374,-23.8374c0,-13.16503 -10.67237,-23.8374 -23.8374,-23.8374c-13.16503,0 -23.8374,10.67237 -23.8374,23.8374c0,13.16503 10.67237,23.8374 23.8374,23.8374zM378.58132,195.23012h-15.88718c-0.04575,0 -0.08289,0.03713 -0.08289,0.08289v53.48397l-33.09984,-53.52773c-0.01525,-0.02453 -0.04177,-0.03979 -0.07028,-0.03979h-18.67871c-0.04575,0 -0.08289,0.03713 -0.08289,0.08289v39.72459c0,21.86211 -17.7829,39.64833 -39.6417,39.64833c-0.04575,0 -0.08289,0.03713 -0.08289,0.08289c0,0.04575 0.03713,0.08289 0.08289,0.08289h55.60514c0.04575,0 0.08289,-0.03713 0.08289,-0.08289v-53.48331l33.10647,53.52707c0.01525,0.02453 0.04177,0.03979 0.07028,0.03979h18.67871c0.04575,0 0.08289,-0.03713 0.08289,-0.08289v-79.4558c0,-0.04575 -0.03713,-0.08289 -0.08289,-0.08289z"
                    data-paper-data="{'glyphName':'','glyphIndex':2,'word':1}"
                    style="animation-play-state: running;"></path>
                <path
                    d="M456.61951,195.27445c-0.01459,-0.02652 -0.04244,-0.04244 -0.07228,-0.04244h-18.67142c-0.02851,0 -0.0557,0.01459 -0.07029,0.03912l-15.16112,24.5144l-15.15913,-24.5144c-0.01459,-0.02453 -0.04177,-0.03912 -0.07029,-0.03912h-18.67871c-0.02984,0 -0.05769,0.01658 -0.07228,0.04244c-0.01392,0.02652 -0.01392,0.05835 0.00199,0.08355l24.54357,39.68414l-24.54357,39.68414c-0.01525,0.02586 -0.01591,0.05769 -0.00199,0.08355c0.01459,0.02652 0.04244,0.04244 0.07228,0.04244h18.67871c0.02851,0 0.0557,-0.01459 0.07029,-0.03912l15.15913,-24.5144l15.16112,24.5144c0.01459,0.02453 0.04177,0.03912 0.07029,0.03912h18.67142c0.02984,0 0.05769,-0.01658 0.07228,-0.04244c0.01392,-0.02652 0.01392,-0.05835 -0.00199,-0.08355l-24.5396,-39.68414l24.5396,-39.68414c0.01591,-0.0252 0.01658,-0.05702 0.00199,-0.08355z"
                    data-paper-data="{'glyphName':'X','glyphIndex':3,'lastGlyphOfWord':true,'word':1}"
                    style="animation-play-state: running;"></path>
            </g>
            <g data-paper-data="{'isContainerElementsWrapper':true}" fill-rule="evenodd"
                style="animation-play-state: running;">
                <path
                    d="M65,294.02224c0,2.54066 0.89832,4.70947 2.69497,6.50643c1.7969,1.79696 3.9658,2.69544 6.50672,2.69544h401.59644c2.54066,0 4.70947,-0.89848 6.50643,-2.69544c1.79696,-1.79696 2.69544,-3.96577 2.69544,-6.50643v-118.04448c0,-2.54066 -0.89848,-4.70947 -2.69544,-6.50643c-1.79696,-1.79696 -3.96577,-2.69544 -6.50643,-2.69544h-401.59644c-2.54104,0 -4.70994,0.89848 -6.50672,2.69544c-1.79665,1.79696 -2.69497,3.96577 -2.69497,6.50643zM74.20169,295.20197c-0.32579,0 -0.60389,-0.11514 -0.8343,-0.34542c-0.23041,-0.23028 -0.34561,-0.50838 -0.34561,-0.8343v-118.04448c0,-0.32592 0.11524,-0.60402 0.34571,-0.8343c0.23035,-0.23028 0.50842,-0.34542 0.83421,-0.34542h401.59644c0.32592,0 0.60402,0.11514 0.8343,0.34542c0.23028,0.23028 0.34542,0.50838 0.34542,0.8343v118.04448c0,0.32592 -0.11514,0.60402 -0.34542,0.8343c-0.23028,0.23028 -0.50838,0.34542 -0.8343,0.34542z"
                    data-paper-data="{'isBaseLogoContainer':true}"
                    style="animation-play-state: running;"></path>
            </g>
        </g>
    </g>
    <g fill-rule="none" font-family="none" font-weight="none" font-size="none" text-anchor="none"
        style="mix-blend-mode: normal; animation-play-state: running;"
        filter="url(#electric-filter)" fill="#F4F4F5" stroke="none">
        <g data-paper-data="{'isGlobalGroup':true,'bounds':{'x':65.00000000000003,'y':166.7758832227011,'width':420,'height':136.44823355459778}}"
            style="animation-play-state: running;">
            <g data-paper-data="{'isPrimaryText':true}" fill-rule="nonzero"
                style="animation-play-state: running;">
                <path
                    d="M133.18081,274.83303c10.19472,0 20.38943,-3.88029 28.15068,-11.64154c0.03183,-0.03249 0.03183,-0.08487 0,-0.11736l-11.2364,-11.23706c-0.03116,-0.03116 -0.08554,-0.03116 -0.11803,0c-9.26111,9.26178 -24.33139,9.26178 -33.59251,0c-4.487,-4.48634 -6.95761,-10.45133 -6.95761,-16.79625c0,-6.34493 2.47127,-12.30991 6.95761,-16.79691c9.26111,-9.26178 24.33139,-9.26178 33.59251,0c0.03249,0.03116 0.08686,0.03116 0.11803,0l11.2364,-11.23706c0.03183,-0.03249 0.03183,-0.08487 0,-0.11736c-15.52249,-15.52249 -40.77887,-15.52249 -56.30136,0c-7.51922,7.51922 -11.6601,17.51635 -11.6601,28.15068c0,10.63433 4.14088,20.63146 11.6601,28.15068c7.76125,7.76191 17.95596,11.6422 28.15068,11.6422z"
                    data-paper-data="{'glyphName':'C','glyphIndex':0,'firstGlyphOfWord':true,'word':1}"
                    style="animation-play-state: running;"></path>
                <path
                    d="M170.3691,274.85358h15.88718c0.04575,0 0.08289,-0.03713 0.08289,-0.08289v-17.32273h20.82308c0.50858,0 1.01848,-0.01392 1.5191,-0.03846l10.76297,17.40495c0.01459,0.02453 0.04177,0.03912 0.07029,0.03912h18.67208c0.02984,0 0.05769,-0.01658 0.07228,-0.04244c0.01392,-0.02652 0.01392,-0.05835 -0.00199,-0.08355l-13.89532,-22.4728c8.70877,-5.77933 13.90725,-15.45884 13.90725,-25.9148c0,-17.15298 -13.95499,-31.10798 -31.10798,-31.10798h-36.79315c-0.04575,0 -0.08289,0.03713 -0.08289,0.08289v79.4558c0.00133,0.04575 0.03846,0.08289 0.08421,0.08289zM215.84053,238.6393c-2.53426,1.80289 -5.53532,2.75572 -8.67827,2.75572h-20.82308v-30.11006h20.82308c8.30165,0 15.05503,6.75404 15.05503,15.05503c0,4.88219 -2.38308,9.47993 -6.37675,12.29931z"
                    data-paper-data="{'glyphName':'R','glyphIndex':1,'word':1}"
                    style="animation-play-state: running;"></path>
                <path
                    d="M271.03717,258.875c13.16503,0 23.8374,-10.67237 23.8374,-23.8374c0,-13.16503 -10.67237,-23.8374 -23.8374,-23.8374c-13.16503,0 -23.8374,10.67237 -23.8374,23.8374c0,13.16503 10.67237,23.8374 23.8374,23.8374zM378.58132,195.23012h-15.88718c-0.04575,0 -0.08289,0.03713 -0.08289,0.08289v53.48397l-33.09984,-53.52773c-0.01525,-0.02453 -0.04177,-0.03979 -0.07028,-0.03979h-18.67871c-0.04575,0 -0.08289,0.03713 -0.08289,0.08289v39.72459c0,21.86211 -17.7829,39.64833 -39.6417,39.64833c-0.04575,0 -0.08289,0.03713 -0.08289,0.08289c0,0.04575 0.03713,0.08289 0.08289,0.08289h55.60514c0.04575,0 0.08289,-0.03713 0.08289,-0.08289v-53.48331l33.10647,53.52707c0.01525,0.02453 0.04177,0.03979 0.07028,0.03979h18.67871c0.04575,0 0.08289,-0.03713 0.08289,-0.08289v-79.4558c0,-0.04575 -0.03713,-0.08289 -0.08289,-0.08289z"
                    data-paper-data="{'glyphName':'','glyphIndex':2,'word':1}"
                    style="animation-play-state: running;"></path>
                <path
                    d="M456.61951,195.27445c-0.01459,-0.02652 -0.04244,-0.04244 -0.07228,-0.04244h-18.67142c-0.02851,0 -0.0557,0.01459 -0.07029,0.03912l-15.16112,24.5144l-15.15913,-24.5144c-0.01459,-0.02453 -0.04177,-0.03912 -0.07029,-0.03912h-18.67871c-0.02984,0 -0.05769,0.01658 -0.07228,0.04244c-0.01392,0.02652 -0.01392,0.05835 0.00199,0.08355l24.54357,39.68414l-24.54357,39.68414c-0.01525,0.02586 -0.01591,0.05769 -0.00199,0.08355c0.01459,0.02652 0.04244,0.04244 0.07228,0.04244h18.67871c0.02851,0 0.0557,-0.01459 0.07029,-0.03912l15.15913,-24.5144l15.16112,24.5144c0.01459,0.02453 0.04177,0.03912 0.07029,0.03912h18.67142c0.02984,0 0.05769,-0.01658 0.07228,-0.04244c0.01392,-0.02652 0.01392,-0.05835 -0.00199,-0.08355l-24.5396,-39.68414l24.5396,-39.68414c0.01591,-0.0252 0.01658,-0.05702 0.00199,-0.08355z"
                    data-paper-data="{'glyphName':'X','glyphIndex':3,'lastGlyphOfWord':true,'word':1}"
                    style="animation-play-state: running;"></path>
            </g>
            <g data-paper-data="{'isContainerElementsWrapper':true}" fill-rule="evenodd"
                style="animation-play-state: running;">
                <path
                    d="M65,294.02224c0,2.54066 0.89832,4.70947 2.69497,6.50643c1.7969,1.79696 3.9658,2.69544 6.50672,2.69544h401.59644c2.54066,0 4.70947,-0.89848 6.50643,-2.69544c1.79696,-1.79696 2.69544,-3.96577 2.69544,-6.50643v-118.04448c0,-2.54066 -0.89848,-4.70947 -2.69544,-6.50643c-1.79696,-1.79696 -3.96577,-2.69544 -6.50643,-2.69544h-401.59644c-2.54104,0 -4.70994,0.89848 -6.50672,2.69544c-1.79665,1.79696 -2.69497,3.96577 -2.69497,6.50643zM74.20169,295.20197c-0.32579,0 -0.60389,-0.11514 -0.8343,-0.34542c-0.23041,-0.23028 -0.34561,-0.50838 -0.34561,-0.8343v-118.04448c0,-0.32592 0.11524,-0.60402 0.34571,-0.8343c0.23035,-0.23028 0.50842,-0.34542 0.83421,-0.34542h401.59644c0.32592,0 0.60402,0.11514 0.8343,0.34542c0.23028,0.23028 0.34542,0.50838 0.34542,0.8343v118.04448c0,0.32592 -0.11514,0.60402 -0.34542,0.8343c-0.23028,0.23028 -0.50838,0.34542 -0.8343,0.34542z"
                    data-paper-data="{'isBaseLogoContainer':true}"
                    style="animation-play-state: running;"></path>
            </g>
        </g>
    </g>
</svg>